<svg width="19" height="18" viewBox="0 0 19 18" fill="none" xmlns="http://www.w3.org/2000/svg">
<path d="M7.49364 7.13156C7.49364 6.28247 6.91598 6.28247 6.91598 6.28247H6.61012H4.53943V8.10438H6.76867C7.15389 8.1042 7.49364 7.98101 7.49364 7.13156Z" fill="#EEEEEE"/>
<path d="M6.91617 9.36304H4.53943V11.5451H6.80642C7.14745 11.5354 7.77685 11.4286 7.77685 10.4845C7.77685 9.35162 6.91617 9.36304 6.91617 9.36304Z" fill="#EEEEEE"/>
<path d="M13.0006 8.10425C11.7394 8.10425 11.5635 9.36287 11.5635 9.36287H14.2456C14.2458 9.36287 14.2618 8.10425 13.0006 8.10425Z" fill="#EEEEEE"/>
<path d="M9.25 0C4.27942 0 0.25 4.02961 0.25 9C0.25 13.9704 4.27942 18 9.25 18C14.2206 18 18.25 13.9704 18.25 9C18.25 4.02961 14.2206 0 9.25 0ZM11.2122 5.31216H14.5809V6.31758H11.2122V5.31216ZM9.50964 10.5857C9.50964 13.0777 6.91617 12.9957 6.91617 12.9957H4.53943H4.46964H2.66743V4.83118H4.46964H4.53943H6.91598C8.2072 4.83118 9.22643 5.544 9.22643 7.00499C9.22643 8.46617 7.98052 8.55879 7.98052 8.55879C9.62289 8.55879 9.50964 10.5857 9.50964 10.5857ZM13.0166 11.8734C14.3738 11.8734 14.3257 10.995 14.3257 10.995H15.7626C15.7626 13.3261 12.9688 13.1664 12.9688 13.1664C9.61608 13.1664 9.83171 10.0452 9.83171 10.0452C9.83171 10.0452 9.82913 6.9085 12.9684 6.9085C16.2732 6.9085 15.8105 10.4523 15.8105 10.4523H11.5798C11.5798 11.9695 13.0166 11.8734 13.0166 11.8734Z" fill="#EEEEEE"/>
</svg>
