<svg width="19" height="18" viewBox="0 0 19 18" fill="none" xmlns="http://www.w3.org/2000/svg">
<path d="M11.9821 9.80494C12.8562 12.0474 13.5052 14.356 13.927 16.7145C14.5286 16.3425 15.091 15.8955 15.6022 15.3773C16.9298 14.0308 17.7866 12.3343 18.0893 10.493C16.785 9.94586 15.3566 9.64307 13.8596 9.64307C13.2198 9.64307 12.5926 9.69905 11.9821 9.80494Z" fill="#EEEEEE"/>
<path d="M15.6786 2.61621C15.676 2.61376 15.6735 2.61104 15.671 2.6086C13.9598 0.926428 11.6848 0 9.26503 0C8.31881 0 7.39471 0.142287 6.51788 0.415446C7.92332 2.14654 9.1597 3.99396 10.2193 5.94643C12.2154 5.11323 14.0541 3.98431 15.6786 2.61621Z" fill="#EEEEEE"/>
<path d="M16.3315 3.375C14.641 4.86345 12.752 6.06964 10.6964 6.97108C10.9995 7.59646 11.2856 8.23181 11.5558 8.87659C12.3101 8.72941 13.0798 8.65435 13.8607 8.65435C15.3733 8.65435 16.8445 8.93323 18.2405 9.48214C18.2466 9.34383 18.25 9.20509 18.25 9.06579C18.25 6.9753 17.5751 4.9915 16.3315 3.375Z" fill="#EEEEEE"/>
<path d="M3.78571 16.1132C5.34985 17.3365 7.26641 18 9.28522 18C10.5684 18 11.8101 17.7316 12.9464 17.2222C12.5205 14.7606 11.8386 12.3855 10.9287 10.125C7.76675 10.9858 5.16171 13.2053 3.78571 16.1132Z" fill="#EEEEEE"/>
<path d="M9.11587 9.61025C9.58069 9.41391 10.0545 9.24758 10.5357 9.11072C10.2817 8.52995 10.0123 7.95745 9.72879 7.39307C7.28746 8.29822 4.72037 8.75686 2.08338 8.75686C1.47073 8.75686 0.862091 8.73166 0.25786 8.68237C0.253034 8.8034 0.25 8.92484 0.25 9.04669C0.25 11.4569 1.18999 13.7228 2.89679 15.4271C2.89734 15.4277 2.89803 15.4282 2.89858 15.4288C3.48888 14.2532 4.26092 13.1848 5.2016 12.2453C6.33244 11.1163 7.64928 10.2297 9.11587 9.61025Z" fill="#EEEEEE"/>
<path d="M9.24999 6.44638C8.18165 4.44483 6.93171 2.5564 5.52297 0.803467C4.5736 1.2483 3.69896 1.86323 2.9371 2.63395C1.57493 4.01195 0.703581 5.75391 0.410706 7.64303C0.976675 7.68986 1.54896 7.71418 2.12675 7.71418C4.62718 7.71418 7.02636 7.26643 9.24999 6.44638Z" fill="#EEEEEE"/>
</svg>
