<svg width="18" height="18" viewBox="0 0 18 18" fill="none" xmlns="http://www.w3.org/2000/svg">
<path d="M8.99887 0C4.02975 0 0 4.13151 0 9.2281C0 13.3045 2.5785 16.7627 6.156 17.984C6.606 18.069 6.77025 17.7841 6.77025 17.5394C6.77025 17.3199 6.76237 16.7397 6.75787 15.9699C4.25475 16.5272 3.726 14.7326 3.726 14.7326C3.31763 13.6664 2.727 13.3826 2.727 13.3826C1.90913 12.8104 2.78775 12.8219 2.78775 12.8219C3.69112 12.8874 4.16587 13.7732 4.16587 13.7732C4.96913 15.1829 6.273 14.7762 6.786 14.5395C6.867 13.9433 7.09987 13.5365 7.3575 13.3056C5.3595 13.0724 3.258 12.2808 3.258 8.74556C3.258 7.73796 3.609 6.91418 4.185 6.26849C4.09163 6.03526 3.78338 5.0966 4.27275 3.82704C4.27275 3.82704 5.02875 3.57888 6.74775 4.7726C7.4655 4.56809 8.235 4.46584 9.00113 4.46239C9.765 4.46699 10.5356 4.56809 11.2545 4.77375C12.9724 3.58003 13.7272 3.82819 13.7272 3.82819C14.2177 5.09889 13.9095 6.03641 13.8172 6.26964C14.3944 6.91533 14.742 7.73911 14.742 8.74671C14.742 12.2911 12.6382 13.0712 10.6335 13.2999C10.9564 13.5848 11.2444 14.1478 11.2444 15.0083C11.2444 16.2422 11.2331 17.2372 11.2331 17.5394C11.2331 17.7864 11.3951 18.0736 11.8519 17.9828C15.4237 16.7604 18 13.3033 18 9.2281C18 4.13151 13.9703 0 8.99887 0Z" fill="#EEEEEE"/>
</svg>
