<svg width="19" height="18" viewBox="0 0 19 18" fill="none" xmlns="http://www.w3.org/2000/svg">
<g clip-path="url(#clip0_534:222)">
<path d="M9.25 0C4.2802 0 0.25 4.0302 0.25 9C0.25 13.9698 4.2802 18 9.25 18C14.2198 18 18.25 13.9698 18.25 9C18.25 4.0302 14.2198 0 9.25 0ZM6.6347 13.6055H4.44279V7.01106H6.6347V13.6055ZM5.53882 6.1106H5.52454C4.789 6.1106 4.31329 5.60426 4.31329 4.97145C4.31329 4.32436 4.80356 3.83203 5.55338 3.83203C6.30319 3.83203 6.76462 4.32436 6.7789 4.97145C6.7789 5.60426 6.30319 6.1106 5.53882 6.1106ZM14.5383 13.6055H12.3466V10.0776C12.3466 9.19102 12.0293 8.58636 11.2362 8.58636C10.6307 8.58636 10.2701 8.99423 10.1116 9.38795C10.0536 9.52885 10.0395 9.72578 10.0395 9.92285V13.6055H7.84773C7.84773 13.6055 7.87643 7.62973 7.84773 7.01106H10.0395V7.94476C10.3308 7.49542 10.8519 6.85629 12.0148 6.85629C13.4569 6.85629 14.5383 7.79878 14.5383 9.82425V13.6055Z" fill="#EEEEEE"/>
</g>
<defs>
<clipPath id="clip0_534:222">
<rect width="18" height="18" fill="white" transform="translate(0.25)"/>
</clipPath>
</defs>
</svg>
